<svg width="24" height="24" viewBox="0 0 24 24" fill="none" xmlns="http://www.w3.org/2000/svg">
<path d="M19.8571 3.75H17.7143V1.51562C17.7143 1.23087 17.4744 1 17.1786 1H15.3929C15.097 1 14.8571 1.23087 14.8571 1.51562V3.75H9.14286V1.51562C9.14286 1.23087 8.90299 1 8.60714 1H6.82143C6.52558 1 6.28571 1.23087 6.28571 1.51562V3.75H4.14286C2.95938 3.75 2 4.6734 2 5.8125V20.9375C2 22.0766 2.95938 23 4.14286 23H19.8571C21.0406 23 22 22.0766 22 20.9375V5.8125C22 4.6734 21.0406 3.75 19.8571 3.75ZM19.5893 20.9375H4.41071C4.33967 20.9375 4.27154 20.9103 4.22131 20.862C4.17108 20.8136 4.14286 20.7481 4.14286 20.6797V7.875H19.8571V20.6797C19.8571 20.7481 19.8289 20.8136 19.7787 20.862C19.7285 20.9103 19.6603 20.9375 19.5893 20.9375ZM17.23 12.3158L10.8769 18.3817C10.6668 18.5822 10.3276 18.5809 10.1192 18.3788L6.76696 15.1261C6.55862 14.9239 6.55996 14.5974 6.77 14.3968L7.78424 13.4285C7.99429 13.228 8.33348 13.2292 8.54183 13.4315L10.5108 15.3419L15.4693 10.6076C15.6794 10.407 16.0186 10.4083 16.227 10.6105L17.233 11.5866C17.4414 11.7888 17.44 12.1153 17.23 12.3158Z" fill="black"/>
</svg>
