<svg width="24" height="24" viewBox="0 0 24 24" fill="none" xmlns="http://www.w3.org/2000/svg">
<path d="M22.525 7.149C22.365 7.05 22.183 7 22 7C21.847 7 21.694 7.035 21.553 7.105L19 8.382V8C19 6.346 17.654 5 16 5H5C3.346 5 2 6.346 2 8V16C2 17.654 3.346 19 5 19H16C17.654 19 19 17.654 19 16V15.618L21.553 16.894C21.694 16.965 21.847 17 22 17C22.183 17 22.365 16.95 22.525 16.851C22.82 16.668 23 16.347 23 16V8C23 7.653 22.82 7.332 22.525 7.149ZM7 13.5C6.171 13.5 5.5 12.829 5.5 12C5.5 11.171 6.171 10.5 7 10.5C7.829 10.5 8.5 11.171 8.5 12C8.5 12.829 7.829 13.5 7 13.5Z" fill="#DC0404"/>
</svg>
